<mxfile host="app.diagrams.net" modified="2023-10-23T11:04:31.976Z" agent="Mozilla/5.0 (Windows NT 10.0; Win64; x64) AppleWebKit/537.36 (KHTML, like Gecko) Chrome/118.0.0.0 Safari/537.36" etag="l2lhZyc_lNT3Z73RHj3v" version="22.0.6" type="github" pages="3">
  <diagram name="ApplicationContext的主要实现类" id="3frwjtQ0lXQBlWPiReMC">
    <mxGraphModel dx="743" dy="393" grid="0" gridSize="10" guides="1" tooltips="1" connect="1" arrows="1" fold="1" page="1" pageScale="1" pageWidth="1920" pageHeight="1200" math="0" shadow="0">
      <root>
        <mxCell id="0" />
        <mxCell id="1" parent="0" />
        <mxCell id="1zXSarL7lR__lsZDVNG9-1" value="" style="childLayout=tableLayout;recursiveResize=0;shadow=0;fillColor=none;" parent="1" vertex="1">
          <mxGeometry x="129" y="166" width="601" height="361" as="geometry" />
        </mxCell>
        <mxCell id="1zXSarL7lR__lsZDVNG9-2" value="" style="shape=tableRow;horizontal=0;startSize=0;swimlaneHead=0;swimlaneBody=0;top=0;left=0;bottom=0;right=0;dropTarget=0;collapsible=0;recursiveResize=0;expand=0;fontStyle=0;fillColor=none;strokeColor=inherit;" parent="1zXSarL7lR__lsZDVNG9-1" vertex="1">
          <mxGeometry width="601" height="35" as="geometry" />
        </mxCell>
        <mxCell id="1zXSarL7lR__lsZDVNG9-3" value="类型名" style="connectable=0;recursiveResize=0;strokeColor=inherit;fillColor=#FF99FF;align=center;whiteSpace=wrap;html=1;fontStyle=1" parent="1zXSarL7lR__lsZDVNG9-2" vertex="1">
          <mxGeometry width="216" height="35" as="geometry">
            <mxRectangle width="216" height="35" as="alternateBounds" />
          </mxGeometry>
        </mxCell>
        <mxCell id="1zXSarL7lR__lsZDVNG9-4" value="简介" style="connectable=0;recursiveResize=0;strokeColor=inherit;fillColor=#FF99FF;align=center;whiteSpace=wrap;html=1;fontStyle=1" parent="1zXSarL7lR__lsZDVNG9-2" vertex="1">
          <mxGeometry x="216" width="385" height="35" as="geometry">
            <mxRectangle width="385" height="35" as="alternateBounds" />
          </mxGeometry>
        </mxCell>
        <mxCell id="1zXSarL7lR__lsZDVNG9-6" style="shape=tableRow;horizontal=0;startSize=0;swimlaneHead=0;swimlaneBody=0;top=0;left=0;bottom=0;right=0;dropTarget=0;collapsible=0;recursiveResize=0;expand=0;fontStyle=0;fillColor=none;strokeColor=inherit;" parent="1zXSarL7lR__lsZDVNG9-1" vertex="1">
          <mxGeometry y="35" width="601" height="64" as="geometry" />
        </mxCell>
        <mxCell id="1zXSarL7lR__lsZDVNG9-7" value="ClassPathXmlApplicationContext" style="connectable=0;recursiveResize=0;strokeColor=inherit;fillColor=none;align=center;whiteSpace=wrap;html=1;" parent="1zXSarL7lR__lsZDVNG9-6" vertex="1">
          <mxGeometry width="216" height="64" as="geometry">
            <mxRectangle width="216" height="64" as="alternateBounds" />
          </mxGeometry>
        </mxCell>
        <mxCell id="1zXSarL7lR__lsZDVNG9-8" value="通过读取类路径下的 XML 格式的配置文件创建 IOC 容器对象" style="connectable=0;recursiveResize=0;strokeColor=inherit;fillColor=none;align=center;whiteSpace=wrap;html=1;" parent="1zXSarL7lR__lsZDVNG9-6" vertex="1">
          <mxGeometry x="216" width="385" height="64" as="geometry">
            <mxRectangle width="385" height="64" as="alternateBounds" />
          </mxGeometry>
        </mxCell>
        <mxCell id="1zXSarL7lR__lsZDVNG9-10" style="shape=tableRow;horizontal=0;startSize=0;swimlaneHead=0;swimlaneBody=0;top=0;left=0;bottom=0;right=0;dropTarget=0;collapsible=0;recursiveResize=0;expand=0;fontStyle=0;fillColor=none;strokeColor=inherit;" parent="1zXSarL7lR__lsZDVNG9-1" vertex="1">
          <mxGeometry y="99" width="601" height="65" as="geometry" />
        </mxCell>
        <mxCell id="1zXSarL7lR__lsZDVNG9-11" value="FileSystemXmlApplicationContext" style="connectable=0;recursiveResize=0;strokeColor=inherit;fillColor=none;align=center;whiteSpace=wrap;html=1;" parent="1zXSarL7lR__lsZDVNG9-10" vertex="1">
          <mxGeometry width="216" height="65" as="geometry">
            <mxRectangle width="216" height="65" as="alternateBounds" />
          </mxGeometry>
        </mxCell>
        <mxCell id="1zXSarL7lR__lsZDVNG9-12" value="通过文件系统路径读取 XML 格式的配置文件创建 IOC 容器对象" style="connectable=0;recursiveResize=0;strokeColor=inherit;fillColor=none;align=center;whiteSpace=wrap;html=1;" parent="1zXSarL7lR__lsZDVNG9-10" vertex="1">
          <mxGeometry x="216" width="385" height="65" as="geometry">
            <mxRectangle width="385" height="65" as="alternateBounds" />
          </mxGeometry>
        </mxCell>
        <mxCell id="1zXSarL7lR__lsZDVNG9-14" style="shape=tableRow;horizontal=0;startSize=0;swimlaneHead=0;swimlaneBody=0;top=0;left=0;bottom=0;right=0;dropTarget=0;collapsible=0;recursiveResize=0;expand=0;fontStyle=0;fillColor=none;strokeColor=inherit;" parent="1zXSarL7lR__lsZDVNG9-1" vertex="1">
          <mxGeometry y="164" width="601" height="66" as="geometry" />
        </mxCell>
        <mxCell id="1zXSarL7lR__lsZDVNG9-15" value="AnnotationConfigApplicationContext" style="connectable=0;recursiveResize=0;strokeColor=inherit;fillColor=none;align=center;whiteSpace=wrap;html=1;" parent="1zXSarL7lR__lsZDVNG9-14" vertex="1">
          <mxGeometry width="216" height="66" as="geometry">
            <mxRectangle width="216" height="66" as="alternateBounds" />
          </mxGeometry>
        </mxCell>
        <mxCell id="1zXSarL7lR__lsZDVNG9-16" value="通过读取Java配置类创建 IOC 容器对象" style="connectable=0;recursiveResize=0;strokeColor=inherit;fillColor=none;align=center;whiteSpace=wrap;html=1;" parent="1zXSarL7lR__lsZDVNG9-14" vertex="1">
          <mxGeometry x="216" width="385" height="66" as="geometry">
            <mxRectangle width="385" height="66" as="alternateBounds" />
          </mxGeometry>
        </mxCell>
        <mxCell id="1zXSarL7lR__lsZDVNG9-17" style="shape=tableRow;horizontal=0;startSize=0;swimlaneHead=0;swimlaneBody=0;top=0;left=0;bottom=0;right=0;dropTarget=0;collapsible=0;recursiveResize=0;expand=0;fontStyle=0;fillColor=none;strokeColor=inherit;" parent="1zXSarL7lR__lsZDVNG9-1" vertex="1">
          <mxGeometry y="230" width="601" height="65" as="geometry" />
        </mxCell>
        <mxCell id="1zXSarL7lR__lsZDVNG9-18" value="WebApplicationContext" style="connectable=0;recursiveResize=0;strokeColor=inherit;fillColor=none;align=center;whiteSpace=wrap;html=1;" parent="1zXSarL7lR__lsZDVNG9-17" vertex="1">
          <mxGeometry width="216" height="65" as="geometry">
            <mxRectangle width="216" height="65" as="alternateBounds" />
          </mxGeometry>
        </mxCell>
        <mxCell id="1zXSarL7lR__lsZDVNG9-19" value="专门为 Web 应用准备，基于 Web 环境创建 IOC 容器对象，并将对象引入存入 ServletContext 域中。" style="connectable=0;recursiveResize=0;strokeColor=inherit;fillColor=none;align=center;whiteSpace=wrap;html=1;" parent="1zXSarL7lR__lsZDVNG9-17" vertex="1">
          <mxGeometry x="216" width="385" height="65" as="geometry">
            <mxRectangle width="385" height="65" as="alternateBounds" />
          </mxGeometry>
        </mxCell>
        <mxCell id="1zXSarL7lR__lsZDVNG9-20" style="shape=tableRow;horizontal=0;startSize=0;swimlaneHead=0;swimlaneBody=0;top=0;left=0;bottom=0;right=0;dropTarget=0;collapsible=0;recursiveResize=0;expand=0;fontStyle=0;fillColor=none;strokeColor=inherit;" parent="1zXSarL7lR__lsZDVNG9-1" vertex="1">
          <mxGeometry y="295" width="601" height="66" as="geometry" />
        </mxCell>
        <mxCell id="1zXSarL7lR__lsZDVNG9-21" value="ConfigurableApplicationContext" style="connectable=0;recursiveResize=0;strokeColor=inherit;fillColor=none;align=center;whiteSpace=wrap;html=1;" parent="1zXSarL7lR__lsZDVNG9-20" vertex="1">
          <mxGeometry width="216" height="66" as="geometry">
            <mxRectangle width="216" height="66" as="alternateBounds" />
          </mxGeometry>
        </mxCell>
        <mxCell id="1zXSarL7lR__lsZDVNG9-22" value="ApplicationContext的子接口，包括一些拓展方法 refresh() 和 close() ，&lt;br&gt;让ApplicationContext 具有启动、关闭和刷新上下文的能力" style="connectable=0;recursiveResize=0;strokeColor=inherit;fillColor=none;align=center;whiteSpace=wrap;html=1;" parent="1zXSarL7lR__lsZDVNG9-20" vertex="1">
          <mxGeometry x="216" width="385" height="66" as="geometry">
            <mxRectangle width="385" height="66" as="alternateBounds" />
          </mxGeometry>
        </mxCell>
      </root>
    </mxGraphModel>
  </diagram>
  <diagram id="16STVoVR41INIzOc21RR" name="全注解开发">
    <mxGraphModel dx="1194" dy="523" grid="0" gridSize="10" guides="1" tooltips="1" connect="1" arrows="1" fold="1" page="1" pageScale="1" pageWidth="1920" pageHeight="1200" math="0" shadow="0">
      <root>
        <mxCell id="0" />
        <mxCell id="1" parent="0" />
        <mxCell id="mrv1dpETwRyj5-v3qWMP-1" value="" style="rounded=1;whiteSpace=wrap;html=1;movable=1;resizable=1;rotatable=1;deletable=1;editable=1;locked=0;connectable=1;" vertex="1" parent="1">
          <mxGeometry x="219" y="251.5" width="440" height="364.5" as="geometry" />
        </mxCell>
        <mxCell id="mrv1dpETwRyj5-v3qWMP-6" value="&lt;b&gt;&lt;font style=&quot;font-size: 20px;&quot;&gt;XML配置方式&lt;/font&gt;&lt;/b&gt;" style="text;html=1;strokeColor=none;fillColor=none;align=center;verticalAlign=middle;whiteSpace=wrap;rounded=0;movable=1;resizable=1;rotatable=1;deletable=1;editable=1;locked=0;connectable=1;" vertex="1" parent="1">
          <mxGeometry x="355" y="188" width="153" height="31" as="geometry" />
        </mxCell>
        <mxCell id="mrv1dpETwRyj5-v3qWMP-9" value="&lt;b&gt;&lt;font style=&quot;font-size: 17px;&quot;&gt;application.xml 主要配置项：&lt;/font&gt;&lt;/b&gt;" style="text;html=1;strokeColor=none;fillColor=none;align=center;verticalAlign=middle;whiteSpace=wrap;rounded=0;movable=1;resizable=1;rotatable=1;deletable=1;editable=1;locked=0;connectable=1;" vertex="1" parent="1">
          <mxGeometry x="219" y="301" width="245" height="31" as="geometry" />
        </mxCell>
        <mxCell id="mrv1dpETwRyj5-v3qWMP-10" value="1. &amp;lt;bean&amp;gt; 标签：直接ioc/di 配置" style="text;html=1;strokeColor=none;fillColor=none;align=center;verticalAlign=middle;whiteSpace=wrap;rounded=0;movable=1;resizable=1;rotatable=1;deletable=1;editable=1;locked=0;connectable=1;fontSize=13;fontStyle=1" vertex="1" parent="1">
          <mxGeometry x="247" y="370.37" width="195" height="31" as="geometry" />
        </mxCell>
        <mxCell id="mrv1dpETwRyj5-v3qWMP-13" value="2. &amp;lt;context:component-scan base-package&amp;gt; 标签：扫描ioc/di注解" style="text;html=1;strokeColor=none;fillColor=none;align=center;verticalAlign=middle;whiteSpace=wrap;rounded=0;movable=1;resizable=1;rotatable=1;deletable=1;editable=1;locked=0;connectable=1;fontSize=13;fontStyle=1" vertex="1" parent="1">
          <mxGeometry x="246" y="422.37" width="407" height="30" as="geometry" />
        </mxCell>
        <mxCell id="mrv1dpETwRyj5-v3qWMP-14" value="3. &amp;lt;context:property-placeholder&amp;gt; 标签：引入外部" style="text;html=1;strokeColor=none;fillColor=none;align=center;verticalAlign=middle;whiteSpace=wrap;rounded=0;movable=1;resizable=1;rotatable=1;deletable=1;editable=1;locked=0;connectable=1;fontSize=13;fontStyle=1" vertex="1" parent="1">
          <mxGeometry x="247" y="472.62" width="309" height="31" as="geometry" />
        </mxCell>
        <mxCell id="mrv1dpETwRyj5-v3qWMP-20" value="&lt;b style=&quot;border-color: var(--border-color);&quot;&gt;&lt;font style=&quot;font-size: 19px;&quot;&gt;完全注解配置方式&lt;/font&gt;&lt;/b&gt;" style="text;html=1;strokeColor=none;fillColor=none;align=center;verticalAlign=middle;whiteSpace=wrap;rounded=0;movable=1;resizable=1;rotatable=1;deletable=1;editable=1;locked=0;connectable=1;" vertex="1" parent="1">
          <mxGeometry x="986.5" y="188" width="161" height="31" as="geometry" />
        </mxCell>
        <mxCell id="mrv1dpETwRyj5-v3qWMP-31" value="" style="rounded=1;whiteSpace=wrap;html=1;movable=1;resizable=1;rotatable=1;deletable=1;editable=1;locked=0;connectable=1;" vertex="1" parent="1">
          <mxGeometry x="847" y="251.5" width="440" height="364.5" as="geometry" />
        </mxCell>
        <mxCell id="mrv1dpETwRyj5-v3qWMP-33" value="&lt;font style=&quot;font-size: 15px;&quot;&gt;&lt;b&gt;1. 使用配置类替代application.xml&amp;nbsp;因为类中可以添加配置注解，需要添加 @Configuration&lt;/b&gt;&lt;/font&gt;" style="text;html=1;strokeColor=none;fillColor=none;align=center;verticalAlign=middle;whiteSpace=wrap;rounded=0;movable=1;resizable=1;rotatable=1;deletable=1;editable=1;locked=0;connectable=1;" vertex="1" parent="1">
          <mxGeometry x="849" y="309" width="434" height="31" as="geometry" />
        </mxCell>
        <mxCell id="mrv1dpETwRyj5-v3qWMP-35" value="&lt;font style=&quot;font-size: 15px;&quot;&gt;2. &amp;lt;bean&amp;gt; 标签，可以使用方法替代，最终配合@Bean注解即可&lt;/font&gt;" style="text;html=1;strokeColor=none;fillColor=none;align=center;verticalAlign=middle;whiteSpace=wrap;rounded=0;movable=1;resizable=1;rotatable=1;deletable=1;editable=1;locked=0;connectable=1;fontSize=13;fontStyle=1" vertex="1" parent="1">
          <mxGeometry x="849" y="370.37" width="429" height="30" as="geometry" />
        </mxCell>
        <mxCell id="mrv1dpETwRyj5-v3qWMP-36" value="&lt;font style=&quot;font-size: 15px;&quot;&gt;4. &amp;lt;context:property-placeholder&amp;gt; 标签，直接使用@PropertySource 注解替代&lt;/font&gt;" style="text;html=1;strokeColor=none;fillColor=none;align=center;verticalAlign=middle;whiteSpace=wrap;rounded=0;movable=1;resizable=1;rotatable=1;deletable=1;editable=1;locked=0;connectable=1;fontSize=13;fontStyle=1" vertex="1" parent="1">
          <mxGeometry x="826" y="472.62" width="405" height="31" as="geometry" />
        </mxCell>
        <mxCell id="mrv1dpETwRyj5-v3qWMP-17" value="" style="group" vertex="1" connectable="0" parent="1">
          <mxGeometry x="692" y="401" width="137" height="75.25" as="geometry" />
        </mxCell>
        <mxCell id="mrv1dpETwRyj5-v3qWMP-3" style="edgeStyle=orthogonalEdgeStyle;rounded=0;orthogonalLoop=1;jettySize=auto;html=1;shape=flexArrow;width=17;endSize=8.73;fillColor=#FF99CC;movable=1;resizable=1;rotatable=1;deletable=1;editable=1;locked=0;connectable=1;" edge="1" parent="mrv1dpETwRyj5-v3qWMP-17">
          <mxGeometry relative="1" as="geometry">
            <mxPoint x="137" y="36.24426605504587" as="targetPoint" />
            <mxPoint y="36.24426605504587" as="sourcePoint" />
          </mxGeometry>
        </mxCell>
        <mxCell id="mrv1dpETwRyj5-v3qWMP-5" value="&lt;b&gt;&lt;font style=&quot;font-size: 20px; background-color: rgb(255, 255, 255);&quot;&gt;完全注解&lt;/font&gt;&lt;/b&gt;" style="text;html=1;strokeColor=none;fillColor=none;align=center;verticalAlign=middle;whiteSpace=wrap;rounded=0;movable=1;resizable=1;rotatable=1;deletable=1;editable=1;locked=0;connectable=1;" vertex="1" parent="mrv1dpETwRyj5-v3qWMP-17">
          <mxGeometry x="10" width="99.05" height="75.25" as="geometry" />
        </mxCell>
        <mxCell id="mrv1dpETwRyj5-v3qWMP-37" value="&lt;font style=&quot;font-size: 15px;&quot;&gt;3.&amp;nbsp;&amp;lt;context:component-scan&amp;gt;&amp;nbsp;标签，直接使用@ComponentScan注解替代&lt;/font&gt;" style="text;html=1;strokeColor=none;fillColor=none;align=center;verticalAlign=middle;whiteSpace=wrap;rounded=0;movable=1;resizable=1;rotatable=1;deletable=1;editable=1;locked=0;connectable=1;fontSize=13;fontStyle=1" vertex="1" parent="1">
          <mxGeometry x="792" y="416" width="442" height="30" as="geometry" />
        </mxCell>
      </root>
    </mxGraphModel>
  </diagram>
  <diagram id="ETit2cIomGsliuHt2epl" name="maven 主程序">
    <mxGraphModel dx="743" dy="393" grid="0" gridSize="10" guides="1" tooltips="1" connect="1" arrows="1" fold="1" page="1" pageScale="1" pageWidth="1920" pageHeight="1200" math="0" shadow="0">
      <root>
        <mxCell id="0" />
        <mxCell id="1" parent="0" />
        <mxCell id="C1OK-XzDBxw_ZT4vJqfv-1" value="" style="shape=image;verticalLabelPosition=bottom;labelBackgroundColor=default;verticalAlign=top;aspect=fixed;imageAspect=0;image=data:image/png,iVBORw0KGgoAAAANSUhEUgAAAc0AAAEZCAYAAAD16n4kAAAgAElEQVR4Ae3c2W8bVR/Gcf8ZJGlLQbSU7R5ZSJW4QICQqNhBbBXIJSylQAmrqKhYxFqDVHFRiQtUUBTRQoAa6CZuEEKFlCYkaTLZQ9qmLWIJi9rEPK/OLPaM7czrJvE4M/2+0ii258w5Zz4n6sPvjPOmxP8QQAABBBBAoCqBVFWtaIQAAggggAACIjT5JUAAAQQQQKBKAUKzSiiaIYAAAgggQGjyO4AAAggggECVAoRmlVA0QwABBBBAgNDkdwABBBBAAIEqBQjNKqFohgACCCCAAKHJ7wACCCCAAAJVChCaVULRDAEEEEAAAUKT3wEEEEAAAQSqFCA0q4SiGQIIIIAAAoQmvwMIIIAAAghUKUBoVglFMwQQQAABBGoXmh1r9N/+c5Tf16CZfQ2a3tug03ualO/bhDoCCCCAAAKxFKhZaOb3N2hmrzkaNb2n0Q7MU7ubdOrrJZoZfDuWWEwaAQQQQODsFqhZaJrK0g7L3Y12UJqw/PcrcyzVP18u1d+5Zfort0xTu87V1K7l+vOL8/TH58v1+2fn67d255j6ft3ZvTqxvntL2XRKqXRWVqzvg8kjgAACRYGaheZUrlG/tjfq5KdNOvFJkyZ3mmOJjrev0OmeFumXrdLYO9LYW9LIa9Lwy9LwZmnwBWnwOclqUb67uTjTer/KZZRKpQpHOjt7FFjZtFKZXL1nXOfxCc06LwDDI4BADQRqFpr58W3SZKt0bLt09APpyPvSxDZpfKs0+oY0/Io0/JI0/GIxKAeelqwnpf7Hpb5Hpb6Ha3DLc+jSDsy0CjlpZZVOpVQWnO7ndrie9aE5B2cuQQABBBa5QM1CUxPvOdXk+LvS2BZp9E1p9PViWA6FheUjUm+z1JNZBHxuxVQSgnY16dt69L/PZVJUmotg5ZgCAgggsNACtQtNE5bjW6QxNyxHXi2vLC1TWbZI/U9I/RucytILy577pO57Qu/XDicTXP4Kz2yhlgSc1y5ntk3NeV/YqfTaVEqBy93zgc/MrEqrT99MzzQ0vfZ28HpbwO4cA5+lMgpu+rqB7l3jO+/dc+kmctnnpffvt1HxPxjC5+G7ed/LsrG8/uY839nv1zcsLxFAAIGaCdQuNM2zSlNZemFpKssh93nlwDPFsOzbIB12K8vejOSFZdedUtdtoTdu/6M8Wwj6Uq7QzveZ3bH7nDLwsRsiha1X+71va9ab0Wyf23laHtzeZZV+evMLjuk+Py1MLqeMudfCe8nKZopbxl4geaFXKdTdeyt0UdbGDSWvD6/PwFZ0+Twq3ZP5rDQ05zvf0OtnmwSfI4AAAgsoULvQtMPS/XLP0CZp8Hlp4FknLC23srTD8kGpEJb3Sj/fJXXdLnXeLB26IfRWnbAprb5MmJiKsvh55XbOP/6FoPKNFLi+LFjchqUB5LveHq+QTL4Ts7wsDRfTrNKcK7ULdGnP1btvJwD99xe4LzcQy6YZ+I+B0hB1Rgv2E5hB4M3CzjfQtfMmcL8VzvMRAgggsMACtQvNoc1SISzdytLaKJnKsm+9dNiE5Tqp536p2wvLO6TOW5yw/Ol66eB1obc76z/KJUFXsV1I6AW2Xkv6KkwoEC6FT+0X9njlaeT8CUZha7JYvVZqX2nOdlgVqkBnTLtdoU9TnXqh6f7HQ6F9SYi69+//RrD/tTN9NzRL7iUYmm6bwhxK7qsw/jzn6xKH3a/bhB8IIIBAzQRqF5qBynKj1P9Y5bDsMpWlF5Y3Sl5YdlwtdVwVeuOVgsW+oCToKrarNjRna1cyhn+i9nglQeM/X/q6UvtKcw6GprtN6gtJJ+yLoek9r7WnUhrys91XYHLVhGbggsCb4D3Mc76q4vrA6LxBAAEEFl6gdqFpPSWZytILy15fZdmz1t2GrRSW1zhh+eOV0g+rQ+/Y/kfZHxpu6+A/1uXP1pxmVW7PutuY/m1Oc30wwILTtMevdWhWCO1gBejepftNXvtcYE6z33/xbhYwNOc73yqvL86dVwgggMDCC9QsNPPdD7iV5UO+bdi1UvfdbmV5q9R5k3RojbMNe/DaYlgeWC0duELT314eesdOaAa/HONUW8FvwJaGqNepEzLBtpWuD2zXmov/T5UWXWj65u7Oyb89a9+nGzbptK+tC1Dx/k0/hXBd6ND0zeFM52vfRxXXe4vLTwQQQKAGAjULzanvmnVy5wU6sWOlju9YocmPV9rH0bYLdbRtlY60rdJEqzku0kTrxRr/yByXaMwcH16qke2X6dg360Nv2QvDwp+SuM/VCv/mu1d77Ur//MI+7f5jXHyeV3wm5x/cCxivXekY/raRhKZX7XrPEs2zQ/tefNuzzg0637otebbozbf0vgJ/juN9e7bkZp1rSsfxeiz+LHUPjDWH+VZ3fXF8XiGAAAILLVCz0FzoiVbqr/Qf5Upt+Kx+Amf6Hw/1mykjI4AAAtUJEJrVOdHqjAWcrd3SZ8Fn3A0XIIAAAotIgNBcRIuRqKm4z1IL/3+9ibo5bgYBBM5WAULzbF35Gt23/7ljyaPQGo1ItwgggEB0ArEOzeiYGAkBBBBAAAGJ0OS3AAEEEEAAgSoFCM0qoWiGAAIIIIAAocnvAAIIIIAAAlUKEJpVQtEMAQQQQAABQpPfAQQQQAABBKoUIDSrhKIZAggggAAChCa/AwgggAACCFQpQGhWCUUzBBBAAAEECE1+BxBAAAEEEKhSgNCsEopmCCCAAAIIEJr8DiCAAAIIIFClAKFZJRTNEEAAAQQQIDT5HUAAAQQQQKBKAUKzSiiaIYAAAgggQGjyO4AAAggggECVAoRmlVA0QwABBBBAgNDkdwABBBBAAIEqBQjNKqFohgACCCCAAKHJ7wACCCCAAAJVChCaVULRDAEEEEAAgfqHZsca/bf/HOX3NWhmX4Om9zbo9J4m5fs2sToIIIAAAggsKoG6h2Z+f4Nm9pqjUdN7Gu3APLW7Sae+XqKZwbcXFRaTQQABBBA4uwXqHpqmsrTDcnejHZQmLP/9yhxL9c+XS/V3bpn+yi3T1K5zNbVruf784jz98fly/f7Z+fqt3Tmmvl93dq8id48AAgggEIlA3UNzKteoX9sbdfLTJp34pEmTO82xRMfbV+h0T4v0y1Zp7B1p7C1p5DVp+GVpeLM0+II0+JxktSjf3RwJFoMggAACCJzdAnUPzfz4NmmyVTq2XTr6gXTkfWlimzS+VRp9Qxp+RRp+SRp+sRiUA09L1pNS/+NS36NS38Nn9ypy9wgggAACkQjUPTQ18Z5TTY6/K41tkUbflEZfL4blUFhYPiL1Nks9mUiwGAQBBBBA4OwWqH9omrAc3yKNuWE58mp5ZWmZyrJF6n9C6t/gVJZeWPbcJ3Xf839WMadMKqWUe2Ryxea5TEqpdFa5bNo5n87KKpwOXmfaFc8VGvECAQQQQOAsEah/aJpnlaay9MLSVJZD7vPKgWeKYdm3QTrsVpa9GckLy647pa7bQpbLCb50thh3uWwx/OzQNGHqT1LTWy5jh6j/OllZZX2BGzIopxBAAAEEEihQ/9C0w9L9cs/QJmnweWngWScsLbeytMPyQakQlvdKP98ldd0udd4sHbph9qWxskqnUirNRO8CJzQzCmahpWy6QpB6F/ETAQQQQOCsFKh/aA5tlgph6VaW1kbJVJZ966XDJizXST33S91eWN4hdd7ihOVP10sHrwtZPDcATTVZYXvV254t1qGSqSjDgjZkME4hgAACCCRYoP6hGagsN0r9j1UOyy5TWXpheaPkhWXH1VLHVf9/idwgtJ9r+sKT0Pz/dLRAAAEEEHAE6h+a1lOSqSy9sOz1VZY9a91t2EpheY0Tlj9eKf2wuvr1dJ9Vetu1FUNT5c9Bqx+AlggggAACSRWoe2jmux9wK8uHfNuwa6Xuu93K8lap8ybp0BpnG/bgtcWwPLBaOnCFpr+9fPb1sbLK+L4E5HzBJy3vo8qhaXZonW/TeuFqD5DLzPpsdPYJcAYBBBBAICkCdQ/Nqe+adXLnBTqxY6WO71ihyY9X2sfRtgt1tG2VjrSt0kSrOS7SROvFGv/IHJdozBwfXqqR7Zfp2DfrQ9fDDsbCn5wUA9NcNFto2h26Van3pypl37ANHZWTCCCAAAJJE6h7aCYNlPtBAAEEEEiuAKGZ3LXlzhBAAAEEFliA0FxgULpDAAEEEEiuAKGZ3LXlzhBAAAEEFliA0FxgULpDAAEEEEiuAKGZ3LXlzhBAAAEEFliA0FxgULpDAAEEEEiuAKGZ3LXlzhBAAAEEFliA0FxgULpDAAEEEEiuAKGZ3LXlzhBAAAEEFliA0FxgULpDAAEEEEiuAKGZ3LXlzhBAAAEEFliA0FxgULpDAAEEEEiuAKGZ3LXlzhBAAAEEFliA0FxgULpDAAEEEEiuAKGZ3LXlzhBAAAEEFliA0FxgULpDAAEEEEiuAKGZ3LXlzhBAAAEEFliA0FxgULpDAAEEEEiuAKGZ3LXlzhBAAAEEFliA0FxgULpDAAEEEEiuAKGZ3LXlzhBAAAEEFliA0FxgULpDAAEEEEiuQPxCs2ON/tt/jvL7GjSzr0HText0ek+T8n2bkrtK3BkCCCCAwKIQiF1o5vc3aGavORo1vafRDsxTu5t06uslmhl8e1GgMgkEEEAAgWQKxC40TWVph+XuRjsoTVj++5U5luqfL5fq79wy/ZVbpqld52pq13L9+cV5+uPz5fr9s/P1W7tzTH2/ri6rmcuklEpnZdVldAZFAAEEEJivQOxCcyrXqF/bG3Xy0yad+KRJkzvNsUTH21fodE+L9MtWaewdaewtaeQ1afhlaXizNPiCNPicZLUo3908X7c5XG8pmyY05wDHJQgggMCiEYhdaObHt0mTrdKx7dLRD6Qj70sT26TxrdLoG9LwK9LwS9Lwi8WgHHhasp6U+h+X+h6V+h5eNAvARBBAAAEE4iMQu9DUxHtONTn+rjS2RRp9Uxp9vRiWQ2Fh+YjU2yz1ZOKzQswUAQQQQGDRCMQvNE1Yjm+RxtywHHm1vLK0TGXZIvU/IfVvcCpLLyx77pO67wldAPvZYyYnK5tWKpVyDvdZZOCzVEa5QE/uFqx3Tcn54DNNt23pOCXXBLrnDQIIIIBAXQXiF5rmWaWpLL2wNJXlkPu8cuCZYlj2bZAOu5Vlb0bywrLrTqnrtlB0O9xSKaWz7ld2rKzSXhBmvJjMKWM+K7yXrGxG3iVS+TPMiqHpH0flfYZOlJMIIIAAApEKxC807bB0v9wztEkafF4aeNYJS8utLO2wfFAqhOW90s93SV23S503S4duCEUOhpvT1AnSYGVZqV2g41xGKV/lGGxfHqrmWqeSDY4T6JM3CCCAAAJ1E4hfaA5tlgph6VaW1kbJVJZ966XDJizXST33S91eWN4hdd7ihOVP10sHrwsFt8PNV0GaxsHAcy63A67kT0jsdl5Vav8sBmCwj+L2rH8yhKZfg9cIIIDA4hKIX2gGKsuNUv9jlcOyy1SWXljeKHlh2XG11HFV6CrMLTTdrVVfZalqKs2ScCY0Q5eGkwgggEBdBeIXmtZTkqksvbDs9VWWPWvdbdhKYXmNE5Y/Xin9sDoUfU6haQdk2vdMs3yrlUozlJ2TCCCAwKIXiF1o5rsfcCvLh3zbsGul7rvdyvJWqfMm6dAaZxv24LXFsDywWjpwhaa/vTx0YeYemikVCsfCl4fYng3F5iQCCCAQI4HYhebUd806ufMCndixUsd3rNDkxyvt42jbhTratkpH2lZpotUcF2mi9WKNf2SOSzRmjg8v1cj2y3Tsm/WhSzSn0Cx8icf3Jypsz4Y6cxIBBBCIm0DsQjNuwMwXAQQQQCA5AoRmctaSO0EAAQQQqLEAoVljYLpHAAEEEEiOAKGZnLXkThBAAAEEaixAaNYYmO4RQAABBJIjQGgmZy25EwQQQACBGgsQmjUGpnsEEEAAgeQIEJrJWUvuBAEEEECgxgKEZo2B6R4BBBBAIDkChGZy1pI7QQABBBCosQChWWNgukcAAQQQSI4AoZmcteROEEAAAQRqLEBo1hiY7hFAAAEEkiNAaCZnLbkTBBBAAIEaCxCaNQamewQQQACB5AgQmslZS+4EAQQQQKDGAoRmjYHpHgEEEEAgOQKEZnLWkjtBAAEEEKixAKFZY2C6RwABBBBIjgChmZy15E4QQAABBGosQGjWGJjuEUAAAQSSI0BoJmctuRMEEEAAgRoLEJo1BqZ7BBBAAIHkCCQ7NDvW6L/95yi/r0Ez+xo0vbdBp/c0Kd+3KTkryJ0ggAACCEQmkOjQzO9v0MxeczRqek+jHZindjfp1NdLNDP4dmTIDIQAAgggkAyBRIemqSztsNzdaAelCct/vzLHUv3z5VL9nVumv3LLNLXrXE3tWq4/vzhPf3y+XL9/dr5+a3eOqe/Xhay0pWw6pVQ6KyukFacQQAABBJIhkOjQnMo16tf2Rp38tEknPmnS5E5zLNHx9hU63dMi/bJVGntHGntLGnlNGn5ZGt4sDb4gDT4nWS3KdzeHrDShGYLDKQQQQCBxAokOzfz4NmmyVTq2XTr6gXTkfWlimzS+VRp9Qxp+RRp+SRp+sRiUA09L1pNS/+NS36NS38OJW3RuCAEEEEBgbgKJDk1NvOdUk+PvSmNbpNE3pdHXi2E5FBaWj0i9zVJPZm6yXIUAAgggkDiBZIemCcvxLdKYG5Yjr5ZXlpapLFuk/iek/g1OZemFZc99Uvc9oYuey5Q+03S3bFMppewjo5zbQ3lb50Tw89mvD50IJxFAAAEEai6Q7NA0zypNZemFpaksh9znlQPPFMOyb4N02K0sezOSF5Zdd0pdt4UuQjDwJCubUbbwraCSZ565jFKptO+8zAVKp1LKuMkaen3oTDiJAAIIIFBrgWSHph2W7pd7hjZJg89LA886YWm5laUdlg9KhbC8V/r5LqnrdqnzZunQDaFrUBqaZY3toPSqTSdE08VUlZVNK5XyzpddLQWur3CejxBAAAEEIhNIdmgObZYKYelWltZGyVSWfeulwyYs10k990vdXljeIXXe4oTlT9dLB68LXYxKoWl/VtieNdu0xVC0Q7LwJyrlIWoGC7s+dDKcRAABBBCoqUCyQzNQWW6U+h+rHJZdprL0wvJGyQvLjquljqtCFyAYmjllSp5jllWK/u1Y+7V/u7aK60Nnw0kEEEAAgVoKJDs0rackU1l6Ydnrqyx71rrbsJXC8honLH+8Uvphdah/IDQrPLOstP1qX5PJOVuz3sNMM0qV14dOiJMIIIAAAjUTSHRo5rsfcCvLh3zbsGul7rvdyvJWqfMm6dAaZxv24LXFsDywWjpwhaa/vTwUvzw0i1/q8b7k49+etTtzwzGd9rU1J+zPfZ+5VWnZ9aEz4iQCCCCAQK0EEh2aU9816+TOC3Rix0od37FCkx+vtI+jbRfqaNsqHWlbpYlWc1ykidaLNf6ROS7RmDk+vFQj2y/TsW/Wh9oHQtP+Mqz5Yo/75ybm2aUdhMVnmk5n7jZs4dlmcQinMv1/1xfb8woBBBBAIDqBRIdmFIzeVmsUYzEGAggggEB9BQjNeflX/vbrvLrkYgQQQACBRStAaM5naSp8cWc+3XEtAggggMDiFiA057E+5tml/8uv8+iKSxFAAAEEYiBAaMZgkZgiAggggMDiECA0F8c6MAsEEEAAgRgIEJoxWCSmiAACCCCwOAQIzcWxDswCAQQQQCAGAoRmDBaJKSKAAAIILA4BQnNxrAOzQAABBBCIgQChGYNFYooIIIAAAotDgNBcHOvALBBAAAEEYiBAaMZgkZgiAggggMDiECA0F8c6MAsEEEAAgRgIEJoxWCSmiAACCCCwOAQIzcWxDswCAQQQQCAGAoRmDBaJKSKAAAIILA4BQtO/Dh1r9N/+c5Tf16CZfQ2a3tug03ualO/b5G/FawQQQACBs1SA0PQtfH5/g2b2mqNR03sa7cA8tbtJp75eopnBt30teYkAAgggcDYKEJq+VTeVpR2WuxvtoDRh+e9X5liqf75cqr9zy/RXbpmmdp2rqV3L9ecX5+mPz5fr98/O12/tzjH1/Tpfj7xEAAEEEEiSAKHpW82pXKN+bW/UyU+bdOKTJk3uNMcSHW9fodM9LdIvW6Wxd6Sxt6SR16Thl6XhzdLgC9Lgc5LVonx3s69HXiKAAAIIJEmA0PStZn58mzTZKh3bLh39QDryvjSxTRrfKo2+IQ2/Ig2/JA2/WAzKgacl60mp/3Gp71Gp72Ffj7xEAAEEEEiSAKHpX82J95xqcvxdaWyLNPqmNPp6MSyHwsLyEam3WerJ+HvkNQIIIIBAggQITf9imrAc3yKNuWE58mp5ZWmZyrJF6n9C6t/gVJZeWPbcJ3Xf4+9xltc5ZVIppbwjnZXlb2lllfbOuT8zOX8DKZdJKZXJycqmy/oJfJbKqOTSYEe8QwABBBCoWoDQ9FOZZ5WmsvTC0lSWQ+7zyoFnimHZt0E67FaWvRnJC8uuO6Wu2/w9lr/OZeyQS2d9MWlllfWSzT0fCEk3RP3X2KGZSqnwmT9oCxe74Vx4Xz4dPkEAAQQQqF6A0PRb2WHpfrlnaJM0+Lw08KwTlpZbWdph+aBUCMt7pZ/vkrpulzpvlg7d4O+x5LWlbNqpEEtOuG+dkCsEoa+RUz0Wq0Y7NEsqVCdIi23M5ZXa+brlJQIIIIDAGQgQmn6soc1SISzdytLaKJnKsm+9dNiE5Tqp536p2wvLO6TOW5yw/Ol66eB1/h6Dr91qcNbCL+y8XYGm5RWodhiWdFQpIO2wLQnX4KR4hwACCCBQrQCh6ZcKVJYbpf7HKodll6ksvbC8UfLCsuNqqeMqf4/B12GhaFqGnSc0g5a8QwABBOogQGj60a2nJFNZemHZ66sse9a627CVwvIaJyx/vFL6YbW/x5LXs2+/Og1nP19xe5ZKs8SXtwgggEBtBQhNn2+++wG3snzItw27Vuq+260sb5U6b5IOrXG2YQ9eWwzLA6ulA1do+tvLfT2Wv/S+2RrIu1xG3vvZzptv2nptTK9sz5bb8gkCCCBQawFC0yc89V2zTu68QCd2rNTxHSs0+fFK+zjadqGOtq3SkbZVmmg1x0WaaL1Y4x+Z4xKNmePDSzWy/TId+2a9r8dZXrrfkC38yYk/Dc0lpedTxWeZXo+EpifBTwQQQCA6AUIzOmtGQgABBBCIuQChGfMFZPoIIIAAAtEJEJrRWTMSAggggEDMBQjNmC8g00cAAQQQiE6A0IzOmpEQQAABBGIuQGjGfAGZPgIIIIBAdAKEZnTWjIQAAgggEHMBQjPmC8j0EUAAAQSiEyA0o7NmJAQQQACBmAsQmjFfQKaPAAIIIBCdAKEZnTUjIYAAAgjEXIDQjPkCMn0EEEAAgegECM3orBkJAQQQQCDmAoRmzBeQ6SOAAAIIRCdAaEZnzUgIIIAAAjEXIDRjvoBMHwEEEEAgOgFCMzprRkIAAQQQiLkAoTmfBexYo//2n6P8vgbN7GvQ9N4Gnd7TpHzfpvn0yrUIIIAAAotUgNCcx8Lk9zdoZq85GjW9p9EOzFO7m3Tq6yWaGXx7Hj1zKQIIIIDAYhQgNOexKqaytMNyd6MdlCYs//3KHEv1z5dL9Xdumf7KLdPUrnM1tWu5/vziPP3x+XL9/tn5+q3dOaa+Xxc6g1wmpVQmF9LGUjadUiqdlRXSilMIIIAAAvMXIDTnYTiVa9Sv7Y06+WmTTnzSpMmd5lii4+0rdLqnRfplqzT2jjT2ljTymjT8sjS8WRp8QRp8TrJalO9uDp0BoRnKw0kEEEAgUgFCcx7c+fFt0mSrdGy7dPQD6cj70sQ2aXyrNPqGNPyKNPySNPxiMSgHnpasJ6X+x6W+R6W+h0Nn8P9DM/RyTiKAAAIILKAAoTkfzIn3nGpy/F1pbIs0+qY0+noxLIfCwvIRqbdZ6smEzoDQDOXhJAIIIBCpAKE5H24TluNbpDE3LEdeLa8sLVNZtkj9T0j9G5zK0gvLnvuk7ntCZ+CFppVNK5VKuUdG/qecdpuyZ5o5ZQrteeYZisxJBBBAoEoBQrNKqIrNzLNKU1l6YWkqyyH3eeXAM8Ww7NsgHXYry96M5IVl151S120Vu/Y+tAMxlVI6633Nxw1DX0iWhWYuY4dr8RpJVlZZf9J6A/ATAQQQQKBqAUKzaqoKDe2wdL/cM7RJGnxeGnjWCUvLrSztsHxQKoTlvdLPd0ldt0udN0uHbqjQcfGjskC0889UncVqM9jG/TZt6Ddui/3zCgEEEECgegFCs3qr8pZDm6VCWLqVpbVRMpVl33rpsAnLdVLP/VK3F5Z3SJ23OGH50/XSwevK+/V9YgdiSQA6W7WzhKaVVTqVUsklvh55iQACCCAwVwFCc65y5rpAZblR6n+sclh2mcrSC8sbJS8sO66WOq4KnQGhGcrDSQQQQCBSAUJzPtzWU5KpLL2w7PVVlj1r3W3YSmF5jROWP14p/bA6dAZnHJpynnkGnmeGjsBJBBBAAIFqBQjNaqUqtMt3P+BWlg/5tmHXSt13u5XlrVLnTdKhNc427MFri2F5YLV04ApNf3t5hZ6LH515aJrv/DjftA1s0eYybNkWWXmFAAIIzEmA0JwTm3PR1HfNOrnzAp3YsVLHd6zQ5Mcr7eNo24U62rZKR9pWaaLVHBdpovVijX9kjks0Zo4PL9XI9st07Jv1oTOYS2jaHbrfoC38mUogQUOH5CQCCCCAwCwChOYsMHH6uFKwxmn+zBUBBBCIiwChGZeVmnWezp+Y8AxzViBOIIAAAgsmQGguGGWdOrK3YdMq/H8f1GkaDIsAAgicDQKEZkxX2fuyj3lmyePKmC4i00YAgdgJEJqxWzImjAACCCBQLwFCs17yjIsAAgggEDsBQjN2S8aEEUAAAQTqJUBo1kuecRFAAAEEYidAaMZuyZgwAggggEC9BAjNeskzLgIIIMownsUAAAcWSURBVIBA7AQIzdgtGRNGAAEEEKiXAKFZL3nGRQABBBCInQChGbslY8IIIIAAAvUSIDTrJc+4CCCAAAKxEyA0Y7dkTBgBBBBAoF4ChGa95BkXAQQQQCB2AoRmlEvWsUb/7T9H+X0NmtnXoOm9DTq9p0n5vk1RzoKxEEAAAQTmKEBozhFuLpfl9zdoZq85GjW9p9EOzFO7m3Tq6yWaGXx7Ll1yDQIIIIBAhAKEZoTYprK0w3J3ox2UJiz//cocS/XPl0v1d26Z/sot09SuczW1a7n+/OI8/fH5cv3+2fn6rd05pr5fF+GMGQoBBBBAwC9AaPo1avx6KteoX9sbdfLTJp34pEmTO82xRMfbV+h0T4v0y1Zp7B1p7C1p5DVp+GVpeLM0+II0+JxktSjf3VzjWdI9AggggMBsAoTmbDI1+Dw/vk2abJWObZeOfiAdeV+a2CaNb5VG35CGX5GGX5KGXywG5cDTkvWk1P+41Peo1PdwDWZGlwgggAAC1QgQmtUoLVSbifecanL8XWlsizT6pjT6ejEsh8LC8hGpt1nqySzUbOgHAQQQQOAMBQjNMwSbV3MTluNbpDE3LEdeLa8sLVNZtkj9T0j9G5zK0gvLnvuk7ntCp5DLpJTK5GRl00qlUs6RzsqSgp+lMsoFerKUTbvt7euK5+0+3T78l5R9bmWV9sY0PwPXuP2Xzq1sHv4ReI0AAggsLgFCM8r1MM8qTWXphaWpLIfc55UDzxTDsm+DdNitLHszkheWXXdKXbeFztgOslRK6ayJSTspi0GW8WIyp4wJtcJ7E6gZeZdIbsB5oZfLKJVK+84X+y10UdampA+vT//cVD6P0JvjJAIIIFBnAUIzygWww9L9cs/QJmnweWngWScsLbeytMPyQakQlvdKP98ldd0udd4sHbohdMZl1Z8kJ0iLlaPpoFK7QMd2CHrXOAFYCOJC1Ro8XwhQryO78vTCtjREnUZORez1413ITwQQQGBxChCaUa7L0GapEJZuZWltlExl2bdeOmzCcp3Uc7/U7YXlHVLnLU5Y/nS9dPC60BnbYViSXpUC0g4rr5J0e3TCtfIWbbB9SYiWbsv6t2hTKTnTcUOzZG6EZuhychIBBBaZAKEZ5YIEKsuNUv9jlcOyy1SWXljeKHlh2XG11HFV6IznFpruNqn/+WKg0izZjg1UkCXnZp0doTkrDScQQCA2AoRmlEtlPSWZytILy15fZdmz1t2GrRSW1zhh+eOV0g+rQ2c8p9Asex7pfWkouG3q9W1Xh4GK0Qld//Zt+SQJzXITPkEAgbgJEJoRrli++wG3snzItw27Vuq+260sb5U6b5IOrXG2YQ9eWwzLA6ulA1do+tvLQ2fsBZu/kf1ZyVZsYLvVDk1vG7VYOab8lafp0A3XdNrX1h3I2WYt+dxUpIVwJTT9a8JrBBCIpwChGeG6TX3XrJM7L9CJHSt1fMcKTX680j6Otl2oo22rdKRtlSZazXGRJlov1vhH5rhEY+b48FKNbL9Mx75ZHzrjOYVm4Ys9vj9RKd2etUd1t3FLAtibkBecpX/q4pwnND0nfiKAQHwFCM34rh0zRwABBBCIWIDQjBic4RBAAAEE4itAaMZ37Zg5AggggEDEAoRmxOAMhwACCCAQXwFCM75rx8wRQAABBCIWIDQjBmc4BBBAAIH4ChCa8V07Zo4AAgggELEAoRkxOMMhgAACCMRXgNCM79oxcwQQQACBiAUIzYjBGQ4BBBBAIL4ChGZ8146ZI4AAAghELEBoRgzOcAgggAAC8RUgNOO7dswcAQQQQCBiAUIzYnCGQwABBBCIrwChGd+1Y+YIIIAAAhELEJoRgzMcAggggEB8BQjN+K4dM0cAAQQQiFiA0IwYnOEQQAABBOIrQGjGd+2YOQIIIIBAxAKEZsTgDIcAAgggEF8BQjO+a8fMEUAAAQQiFiA0IwZnOAQQQACB+AoQmvFdO2aOAAIIIBCxAKEZMTjDIYAAAgjEV4DQjO/aMXMEEEAAgYgFCM2IwRkOAQQQQCC+AoRmfNeOmSOAAAIIRCxAaEYMznAIIIAAAvEVIDTju3bMHAEEEEAgYgFCM2JwhkMAAQQQiK8AoRnftWPmCCCAAAIRCxCaEYMzHAIIIIBAfAUIzfiuHTNHAAEEEIhYgNCMGJzhEEAAAQTiK0BoxnftmDkCCCCAQMQChGbE4AyHAAIIIBBfAUIzvmvHzBFAAAEEIhYgNCMGZzgEEEAAgfgKEJrxXTtmjgACCCAQsQChGTE4wyGAAAIIxFeA0Izv2jFzBBBAAIGIBQjNiMEZDgEEEEAgvgKEZnzXjpkjgAACCEQsQGhGDM5wCCCAAALxFSA047t2zBwBBBBAIGIBQjNicIZDAAEEEIivAKEZ37Vj5ggggAACEQsQmhGDMxwCCCCAQHwF/gfGL/AvNcggBQAAAABJRU5ErkJggg==;movable=0;resizable=0;rotatable=0;deletable=0;editable=0;locked=1;connectable=0;" vertex="1" parent="1">
          <mxGeometry x="185.000009765625" y="71.99999267578124" width="461" height="281" as="geometry" />
        </mxCell>
        <mxCell id="C1OK-XzDBxw_ZT4vJqfv-2" value="" style="shape=curlyBracket;whiteSpace=wrap;html=1;rounded=1;flipH=1;labelPosition=right;verticalLabelPosition=middle;align=left;verticalAlign=middle;strokeColor=#FF3333;" vertex="1" parent="1">
          <mxGeometry x="358" y="228" width="20" height="79" as="geometry" />
        </mxCell>
        <mxCell id="C1OK-XzDBxw_ZT4vJqfv-5" style="edgeStyle=orthogonalEdgeStyle;rounded=0;orthogonalLoop=1;jettySize=auto;html=1;strokeColor=#FF3333;" edge="1" parent="1" source="C1OK-XzDBxw_ZT4vJqfv-3">
          <mxGeometry relative="1" as="geometry">
            <mxPoint x="411.4000244140625" y="95.5" as="targetPoint" />
          </mxGeometry>
        </mxCell>
        <mxCell id="C1OK-XzDBxw_ZT4vJqfv-3" value="" style="rounded=0;whiteSpace=wrap;html=1;fillColor=none;strokeColor=#FF3333;" vertex="1" parent="1">
          <mxGeometry x="200" y="81" width="169" height="29" as="geometry" />
        </mxCell>
        <mxCell id="C1OK-XzDBxw_ZT4vJqfv-6" value="&lt;b&gt;&lt;font color=&quot;#ff3333&quot;&gt;工程根目录&lt;/font&gt;&lt;/b&gt;" style="text;html=1;strokeColor=none;fillColor=none;align=center;verticalAlign=middle;whiteSpace=wrap;rounded=0;" vertex="1" parent="1">
          <mxGeometry x="419" y="81" width="79" height="30" as="geometry" />
        </mxCell>
        <mxCell id="C1OK-XzDBxw_ZT4vJqfv-7" value="&lt;b&gt;&lt;font color=&quot;#ff3333&quot;&gt;Java程序中的package部分&lt;/font&gt;&lt;/b&gt;" style="text;html=1;strokeColor=none;fillColor=none;align=center;verticalAlign=middle;whiteSpace=wrap;rounded=0;" vertex="1" parent="1">
          <mxGeometry x="394" y="252.5" width="158" height="30" as="geometry" />
        </mxCell>
      </root>
    </mxGraphModel>
  </diagram>
</mxfile>
